<svg xmlns="http://www.w3.org/2000/svg" width="22" height="22" viewBox="0 0 17 21" fill="none">
<path d="M16.3036 20.75H0.494048C0.220974 20.75 0 20.529 0 20.256V0.494048C0 0.221333 0.220974 0 0.494048 0H16.3036C16.5766 0 16.7976 0.221333 16.7976 0.494048V20.256C16.7976 20.529 16.5766 20.75 16.3036 20.75ZM0.988095 19.7619H15.8095V0.988095H0.988095V19.7619Z" fill="#FFCC00"/>
<path d="M13.4889 3.98541H3.30862C3.03555 3.98541 2.81458 3.76408 2.81458 3.49136C2.81458 3.21865 3.03555 2.99731 3.30862 2.99731H13.4889C13.762 2.99731 13.9829 3.21865 13.9829 3.49136C13.9829 3.76408 13.762 3.98541 13.4889 3.98541Z" fill="#FFCC00"/>
<path d="M13.4888 6.14128H3.30853C3.10983 6.14128 2.94922 5.98031 2.94922 5.78198C2.94922 5.58364 3.10983 5.42267 3.30853 5.42267H13.4888C13.6875 5.42267 13.8481 5.58364 13.8481 5.78198C13.8481 5.98031 13.6875 6.14128 13.4888 6.14128Z" fill="#FFCC00"/>
<path d="M13.4888 8.43151H3.30853C3.10983 8.43151 2.94922 8.27054 2.94922 8.0722C2.94922 7.87386 3.10983 7.71289 3.30853 7.71289H13.4888C13.6875 7.71289 13.8481 7.87386 13.8481 8.0722C13.8481 8.27054 13.6875 8.43151 13.4888 8.43151Z" fill="#FFCC00"/>
<path d="M13.4888 10.7217H3.30853C3.10983 10.7217 2.94922 10.5611 2.94922 10.3624C2.94922 10.1641 3.10983 10.0031 3.30853 10.0031H13.4888C13.6875 10.0031 13.8481 10.1641 13.8481 10.3624C13.8481 10.5611 13.6875 10.7217 13.4888 10.7217Z" fill="#FFCC00"/>
<path d="M13.4888 13.0123H3.30853C3.10983 13.0123 2.94922 12.8517 2.94922 12.653C2.94922 12.4543 3.10983 12.2936 3.30853 12.2936H13.4888C13.6875 12.2936 13.8481 12.4543 13.8481 12.653C13.8481 12.8517 13.6875 13.0123 13.4888 13.0123Z" fill="#FFCC00"/>
<path d="M13.4888 15.3026H3.30853C3.10983 15.3026 2.94922 15.142 2.94922 14.9433C2.94922 14.7446 3.10983 14.584 3.30853 14.584H13.4888C13.6875 14.584 13.8481 14.7446 13.8481 14.9433C13.8481 15.142 13.6875 15.3026 13.4888 15.3026Z" fill="#FFCC00"/>
<path d="M13.4888 17.5927H3.30853C3.10983 17.5927 2.94922 17.4321 2.94922 17.2334C2.94922 17.0347 3.10983 16.8741 3.30853 16.8741H13.4888C13.6875 16.8741 13.8481 17.0347 13.8481 17.2334C13.8481 17.4321 13.6875 17.5927 13.4888 17.5927Z" fill="#FFCC00"/>
</svg>