<svg width="20" height="20" viewBox="0 0 20 20" fill="none" xmlns="http://www.w3.org/2000/svg">
<path d="M15.4913 0H4.50875C2.01864 0 0 2.01864 0 4.50875V15.4913C0 17.9814 2.01864 20 4.50875 20H15.4913C17.9814 20 20 17.9814 20 15.4913V4.50875C20 2.01864 17.9814 0 15.4913 0Z" fill="white"/>
<path d="M16.6663 9.05743C16.6663 6.07368 13.6751 3.64618 9.9982 3.64618C6.32133 3.64618 3.33008 6.07368 3.33008 9.05743C3.33008 11.7324 5.70258 13.9724 8.90695 14.3962C9.12383 14.4431 9.41945 14.5393 9.49445 14.7249C9.56195 14.8937 9.5382 15.1574 9.51633 15.3281C9.51633 15.3281 9.4382 15.7987 9.42133 15.8987C9.39195 16.0674 9.28758 16.5581 9.99883 16.2581C10.7107 15.9581 13.8388 13.9968 15.2376 12.3868C16.2038 11.3268 16.667 10.2518 16.667 9.05743H16.6663Z" fill="#004EBC"/>
<path d="M14.4476 10.7806H12.5745C12.5039 10.7806 12.447 10.7238 12.447 10.6531V10.6513V7.74626V7.74313C12.447 7.67251 12.5039 7.61563 12.5745 7.61563H14.4476C14.5176 7.61563 14.5751 7.67313 14.5751 7.74313V8.21626C14.5751 8.28688 14.5183 8.34376 14.4476 8.34376H13.1745V8.83501H14.4476C14.5176 8.83501 14.5751 8.89251 14.5751 8.96251V9.43563C14.5751 9.50626 14.5183 9.56313 14.4476 9.56313H13.1745V10.0544H14.4476C14.5176 10.0544 14.5751 10.1119 14.5751 10.1819V10.655C14.5751 10.7256 14.5183 10.7825 14.4476 10.7825V10.7806Z" fill="white"/>
<path d="M7.51834 10.7808C7.58834 10.7808 7.64584 10.7239 7.64584 10.6533V10.1801C7.64584 10.1101 7.58834 10.0526 7.51834 10.0526H6.24521V7.74264C6.24521 7.67264 6.18771 7.61514 6.11771 7.61514H5.64459C5.57396 7.61514 5.51709 7.67202 5.51709 7.74264V10.6508V10.6533C5.51709 10.7239 5.57396 10.7808 5.64459 10.7808H7.51771H7.51834Z" fill="white"/>
<path d="M8.6459 7.61563H8.1734C8.10298 7.61563 8.0459 7.67271 8.0459 7.74313V10.6531C8.0459 10.7235 8.10298 10.7806 8.1734 10.7806H8.6459C8.71632 10.7806 8.7734 10.7235 8.7734 10.6531V7.74313C8.7734 7.67271 8.71632 7.61563 8.6459 7.61563Z" fill="white"/>
<path d="M11.8649 7.61563H11.3918C11.3212 7.61563 11.2643 7.67251 11.2643 7.74313V9.47126L9.93303 7.67313C9.9299 7.66876 9.92615 7.66438 9.92303 7.66001C9.92303 7.66001 9.92303 7.66001 9.9224 7.65938C9.9199 7.65688 9.9174 7.65376 9.9149 7.65126C9.91428 7.65063 9.91303 7.65001 9.9124 7.64938C9.9099 7.64751 9.90803 7.64563 9.90553 7.64376C9.90428 7.64313 9.90303 7.64188 9.90178 7.64126C9.8999 7.63938 9.8974 7.63813 9.8949 7.63688C9.89365 7.63626 9.8924 7.63501 9.89115 7.63438C9.88865 7.63313 9.88678 7.63188 9.88428 7.63063C9.88303 7.63001 9.88178 7.62938 9.88053 7.62876C9.87803 7.62751 9.87553 7.62626 9.87303 7.62563C9.87178 7.62563 9.87053 7.62438 9.86865 7.62438C9.86615 7.62376 9.86365 7.62251 9.86115 7.62188C9.8599 7.62188 9.85803 7.62126 9.85678 7.62063C9.85428 7.62063 9.85178 7.61938 9.84928 7.61876C9.8474 7.61876 9.84553 7.61876 9.84365 7.61813C9.84115 7.61813 9.83928 7.61751 9.83678 7.61751C9.83428 7.61751 9.8324 7.61751 9.8299 7.61751C9.82865 7.61751 9.82678 7.61751 9.82553 7.61751H9.35553C9.28553 7.61751 9.22803 7.67438 9.22803 7.74501V10.655C9.22803 10.725 9.2849 10.7825 9.35553 10.7825H9.82865C9.89928 10.7825 9.95615 10.7256 9.95615 10.655V8.92688L11.2893 10.7275C11.2987 10.7406 11.3099 10.7513 11.3224 10.7594C11.3224 10.7594 11.3237 10.76 11.3237 10.7606C11.3262 10.7625 11.3287 10.7638 11.3318 10.7656C11.333 10.7663 11.3343 10.7669 11.3355 10.7675C11.3374 10.7688 11.3399 10.7694 11.3418 10.7706C11.3437 10.7719 11.3462 10.7725 11.348 10.7731C11.3493 10.7731 11.3505 10.7744 11.3518 10.7744C11.3549 10.7756 11.3574 10.7763 11.3605 10.7769C11.3605 10.7769 11.3618 10.7769 11.3624 10.7769C11.373 10.7794 11.3843 10.7813 11.3955 10.7813H11.8655C11.9355 10.7813 11.993 10.7244 11.993 10.6538V7.74376C11.993 7.67376 11.9362 7.61626 11.8655 7.61626L11.8649 7.61563Z" fill="white"/>
</svg>
