<svg width="20" height="20" viewBox="0 0 20 20" fill="none" xmlns="http://www.w3.org/2000/svg">
<mask id="mask0_9324_4163" style="mask-type:luminance" maskUnits="userSpaceOnUse" x="0" y="0" width="20" height="20">
<path fill-rule="evenodd" clip-rule="evenodd" d="M0 0H20V20H0V0Z" fill="white"/>
</mask>
<g mask="url(#mask0_9324_4163)">
<path fill-rule="evenodd" clip-rule="evenodd" d="M10 3.05176e-05C7.28416 3.05176e-05 6.94362 0.0115435 5.87701 0.0602154C4.81259 0.108768 4.08569 0.27785 3.44962 0.5251C2.79203 0.780648 2.23436 1.12262 1.67839 1.67862C1.12246 2.23465 0.780524 2.79239 0.525007 3.45006C0.277786 4.08621 0.108725 4.81319 0.0601777 5.87774C0.0115116 6.94448 0 7.28506 0 10.0012C0 12.7174 0.0115116 13.058 0.0601777 14.1247C0.108725 15.1892 0.277786 15.9162 0.525007 16.5524C0.780524 17.21 1.12246 17.7678 1.67839 18.3238C2.23436 18.8798 2.79203 19.2218 3.44962 19.4774C4.08569 19.7246 4.81259 19.8937 5.87701 19.9423C6.94362 19.9909 7.28416 20.0024 10 20.0024C12.7159 20.0024 13.0564 19.9909 14.123 19.9423C15.1874 19.8937 15.9143 19.7246 16.5504 19.4774C17.208 19.2218 17.7656 18.8798 18.3216 18.3238C18.8775 17.7678 19.2194 17.2101 19.475 16.5524C19.7222 15.9162 19.8913 15.1892 19.9399 14.1247C19.9885 13.058 20 12.7174 20 10.0012C20 7.28506 19.9885 6.94448 19.9399 5.87774C19.8913 4.81319 19.7222 4.08621 19.475 3.45006C19.2194 2.79239 18.8775 2.23465 18.3216 1.67862C17.7656 1.12262 17.208 0.780648 16.5504 0.5251C15.9143 0.27785 15.1874 0.108768 14.123 0.0602154C13.0564 0.0115435 12.7159 3.05176e-05 10 3.05176e-05ZM9.99998 1.80208C12.6701 1.80208 12.9864 1.81229 14.0408 1.86036C15.0158 1.90491 15.5453 2.06779 15.8977 2.20476C16.3644 2.38619 16.6976 2.60295 17.0475 2.9529C17.3974 3.30285 17.6141 3.63601 17.7955 4.10284C17.9324 4.45526 18.0954 4.98482 18.1398 5.95992C18.188 7.01451 18.1982 7.33083 18.1982 10.0013C18.1982 12.6717 18.188 12.988 18.1398 14.0426C18.0954 15.0177 17.9324 15.5473 17.7955 15.8997C17.6141 16.3665 17.3974 16.6997 17.0475 17.0497C16.6976 17.3996 16.3644 17.6163 15.8977 17.7978C15.5453 17.9347 15.0158 18.0977 14.0408 18.1421C12.9865 18.1902 12.6703 18.2004 9.99998 18.2004C7.32965 18.2004 7.01344 18.1902 5.9591 18.1421C4.98411 18.0977 4.45462 17.9347 4.10225 17.7978C3.63547 17.6163 3.30235 17.3996 2.95244 17.0497C2.60253 16.6997 2.38579 16.3665 2.20438 15.8997C2.06744 15.5473 1.90457 15.0177 1.86007 14.0426C1.81196 12.988 1.80176 12.6717 1.80176 10.0013C1.80176 7.33083 1.81196 7.01451 1.86007 5.95992C1.90457 4.98482 2.06744 4.45526 2.20438 4.10284C2.38579 3.63601 2.60253 3.30285 2.95244 2.9529C3.30235 2.60295 3.63547 2.38619 4.10225 2.20476C4.45462 2.06779 4.98411 1.90491 5.9591 1.86036C7.01356 1.81229 7.32985 1.80208 9.99998 1.80208Z" fill="white"/>
</g>
<path fill-rule="evenodd" clip-rule="evenodd" d="M10.0003 13.3351C8.15937 13.3351 6.66699 11.8425 6.66699 10.0014C6.66699 8.16015 8.15937 6.6676 10.0003 6.6676C11.8412 6.6676 13.3337 8.16015 13.3337 10.0014C13.3337 11.8425 11.8412 13.3351 10.0003 13.3351ZM9.9999 4.86539C7.1638 4.86539 4.86475 7.16472 4.86475 10.0012C4.86475 12.8375 7.1638 15.1369 9.9999 15.1369C12.836 15.1369 15.135 12.8375 15.135 10.0012C15.135 7.16472 12.836 4.86539 9.9999 4.86539Z" fill="white"/>
<path fill-rule="evenodd" clip-rule="evenodd" d="M16.5377 4.66256C16.5377 5.32539 16.0004 5.86268 15.3377 5.86268C14.675 5.86268 14.1377 5.32539 14.1377 4.66256C14.1377 3.99973 14.675 3.46243 15.3377 3.46243C16.0004 3.46243 16.5377 3.99973 16.5377 4.66256Z" fill="white"/>
</svg>
