<svg width="20" height="20" viewBox="0 0 20 20" fill="none" xmlns="http://www.w3.org/2000/svg">
<path fill-rule="evenodd" clip-rule="evenodd" d="M18.8965 0H1.10345C0.494031 0 0 0.494031 0 1.10345V18.8966C0 19.506 0.494031 20 1.10345 20H10.6897V12.2655H8.08621V9.23793H10.6897V7.01034C10.6897 4.42759 12.269 3.02069 14.5724 3.02069C15.3486 3.019 16.1244 3.05813 16.8965 3.13793V5.83793H15.3103C14.0552 5.83793 13.8103 6.43103 13.8103 7.3069V9.23448H16.8103L16.4207 12.2621H13.7931V20H18.8965C19.506 20 20 19.506 20 18.8966V1.10345C20 0.494031 19.506 0 18.8965 0Z" fill="#555555"/>
<path fill-rule="evenodd" clip-rule="evenodd" d="M13.7931 20V12.2655H16.4034L16.7931 9.23793H13.7931V7.31035C13.7931 6.43448 14.0379 5.84138 15.2931 5.84138H16.8965V3.13793C16.1233 3.05801 15.3463 3.01888 14.5689 3.02069C12.262 3.02069 10.6896 4.42759 10.6896 7.01035V9.23793H8.08618V12.2655H10.6896V20H13.7931Z" fill="white"/>
</svg>
