<svg xmlns="http://www.w3.org/2000/svg" width="22" height="22" viewBox="0 0 22 22" fill="none">
<path d="M11 0C8.82441 0 6.69767 0.645139 4.88873 1.85383C3.07979 3.06253 1.66989 4.78049 0.83733 6.79048C0.00476615 8.80047 -0.213071 11.0122 0.211367 13.146C0.635804 15.2798 1.68345 17.2398 3.22183 18.7782C4.76021 20.3165 6.72022 21.3642 8.85401 21.7886C10.9878 22.2131 13.1995 21.9952 15.2095 21.1627C17.2195 20.3301 18.9375 18.9202 20.1462 17.1113C21.3549 15.3023 22 13.1756 22 11C21.9968 8.08359 20.8369 5.28753 18.7747 3.22531C16.7125 1.16309 13.9164 0.00315432 11 0V0ZM11 20.1667C9.18701 20.1667 7.41473 19.629 5.90728 18.6218C4.39983 17.6146 3.22491 16.1829 2.53111 14.5079C1.83731 12.8329 1.65578 10.9898 2.00947 9.21167C2.36317 7.43351 3.23621 5.80017 4.51819 4.51819C5.80017 3.23621 7.43352 2.36317 9.21168 2.00947C10.9898 1.65577 12.8329 1.8373 14.5079 2.5311C16.1829 3.22491 17.6146 4.39982 18.6218 5.90727C19.6291 7.41472 20.1667 9.187 20.1667 11C20.164 13.4303 19.1974 15.7604 17.4789 17.4789C15.7604 19.1974 13.4303 20.164 11 20.1667Z" fill="#FFCC00"/>
<path d="M11.6548 4.6427C11.1265 4.54641 10.5834 4.56745 10.0642 4.70433C9.54487 4.84122 9.062 5.0906 8.64973 5.43484C8.23745 5.77908 7.90584 6.20976 7.67836 6.6964C7.45088 7.18304 7.33309 7.71375 7.33333 8.25098C7.33333 8.49405 7.42985 8.72716 7.60166 8.89904C7.77347 9.07092 8.00649 9.16748 8.24947 9.16748C8.49245 9.16748 8.72547 9.07092 8.89728 8.89904C9.06909 8.72716 9.16561 8.49405 9.16561 8.25098C9.16538 7.98132 9.22462 7.71493 9.33912 7.47081C9.45362 7.22669 9.62054 7.01085 9.828 6.83867C10.0355 6.6665 10.2783 6.54224 10.5393 6.47474C10.8003 6.40725 11.0729 6.39819 11.3378 6.44822C11.7003 6.51881 12.0335 6.6961 12.2947 6.95736C12.5558 7.21862 12.733 7.55195 12.8036 7.91462C12.8819 8.3285 12.8154 8.75674 12.6152 9.1273C12.415 9.49785 12.0933 9.78812 11.7042 9.94926C11.2163 10.1576 10.8014 10.5066 10.5124 10.9517C10.2235 11.3968 10.0736 11.9179 10.0818 12.4486V12.8335C10.0818 13.0766 10.1783 13.3097 10.3501 13.4816C10.5219 13.6534 10.7549 13.75 10.9979 13.75C11.2409 13.75 11.4739 13.6534 11.6457 13.4816C11.8175 13.3097 11.914 13.0766 11.914 12.8335V12.4486C11.9072 12.2814 11.9492 12.116 12.035 11.9724C12.1207 11.8288 12.2465 11.7134 12.3968 11.6402C13.1295 11.3385 13.7447 10.8074 14.1502 10.1265C14.5558 9.4456 14.7298 8.65154 14.6462 7.86335C14.5626 7.07515 14.2259 6.33529 13.6866 5.75465C13.1473 5.17401 12.4344 4.78387 11.6548 4.6427Z" fill="#FFCC00"/>
<path d="M11 17.4167C11.5063 17.4167 11.9167 17.0063 11.9167 16.5C11.9167 15.9937 11.5063 15.5833 11 15.5833C10.4937 15.5833 10.0833 15.9937 10.0833 16.5C10.0833 17.0063 10.4937 17.4167 11 17.4167Z" fill="#FFCC00"/>
</svg>