<svg width="20" height="20" viewBox="0 0 20 20" fill="none" xmlns="http://www.w3.org/2000/svg">
<g id="Frame 996">
<g id="flogo-Hex-RGB-MedGrey-58">
<path id="Path" fill-rule="evenodd" clip-rule="evenodd" d="M18.8965 0H1.10345C0.494031 0 0 0.494031 0 1.10345V18.8966C0 19.506 0.494031 20 1.10345 20H10.6897V12.2655H8.08621V9.23793H10.6897V7.01034C10.6897 4.42759 12.269 3.02069 14.5724 3.02069C15.3486 3.019 16.1244 3.05813 16.8965 3.13793V5.83793H15.3103C14.0552 5.83793 13.8103 6.43103 13.8103 7.3069V9.23448H16.8103L16.4207 12.2621H13.7931V20H18.8965C19.506 20 20 19.506 20 18.8966V1.10345C20 0.494031 19.506 0 18.8965 0Z" fill="white"/>
<path id="f" fill-rule="evenodd" clip-rule="evenodd" d="M13.7933 20V12.2655H16.4037L16.7933 9.23796H13.7933V7.31038C13.7933 6.43451 14.0381 5.84141 15.2933 5.84141H16.8968V3.13796C16.1235 3.05804 15.3466 3.01891 14.5692 3.02072C12.2623 3.02072 10.6899 4.42762 10.6899 7.01038V9.23796H8.08643V12.2655H10.6899V20H13.7933Z" fill="#004EBC"/>
</g>
</g>
</svg>
