<svg xmlns="http://www.w3.org/2000/svg" width="22" height="22" viewBox="0 0 17 15" fill="none">
<path d="M15.7645 2.88008H10.0814L13.0465 0.869717C13.151 0.795622 13.2216 0.6846 13.243 0.560475C13.2643 0.436351 13.2349 0.309015 13.1609 0.205791C13.0869 0.102567 12.9743 0.0316804 12.8472 0.00834274C12.7201 -0.0149949 12.5887 0.0110758 12.4812 0.0809605L8.5 2.77428L4.53267 0.0809605C4.42512 0.0110758 4.29371 -0.0149949 4.16663 0.00834274C4.03955 0.0316804 3.92694 0.102567 3.85295 0.205791C3.77896 0.309015 3.7495 0.436351 3.77088 0.560475C3.79227 0.6846 3.86279 0.795622 3.96733 0.869717L6.92849 2.88008H1.23547C0.907799 2.88008 0.593554 3.00676 0.361859 3.23225C0.130165 3.45774 0 3.76357 0 4.08246V12.6433C0 12.9622 0.130165 13.2681 0.361859 13.4936C0.593554 13.719 0.907799 13.8457 1.23547 13.8457H2.17442V14.5191C2.17442 14.6466 2.22648 14.7689 2.31916 14.8591C2.41184 14.9493 2.53754 15 2.6686 15C2.79967 15 2.92537 14.9493 3.01805 14.8591C3.11072 14.7689 3.16279 14.6466 3.16279 14.5191V13.8457H14.0349V14.5191C14.0349 14.6466 14.0869 14.7689 14.1796 14.8591C14.2723 14.9493 14.398 15 14.5291 15C14.6601 15 14.7858 14.9493 14.8785 14.8591C14.9712 14.7689 15.0233 14.6466 15.0233 14.5191V13.8457H15.7645C16.0922 13.8457 16.4064 13.719 16.6381 13.4936C16.8698 13.2681 17 12.9622 17 12.6433V4.08246C17 3.76357 16.8698 3.45774 16.6381 3.23225C16.4064 3.00676 16.0922 2.88008 15.7645 2.88008ZM16.0116 12.6433C16.0116 12.7071 15.9856 12.7683 15.9393 12.8134C15.8929 12.8585 15.8301 12.8838 15.7645 12.8838H1.23547C1.16993 12.8838 1.10708 12.8585 1.06074 12.8134C1.01441 12.7683 0.988372 12.7071 0.988372 12.6433V4.08246C0.988372 4.01868 1.01441 3.95751 1.06074 3.91242C1.10708 3.86732 1.16993 3.84198 1.23547 3.84198H15.7645C15.8301 3.84198 15.8929 3.86732 15.9393 3.91242C15.9856 3.95751 16.0116 4.01868 16.0116 4.08246V12.6433Z" fill="#FFCC00"/>
</svg>