<svg width="20" height="20" viewBox="0 0 20 20" fill="none" xmlns="http://www.w3.org/2000/svg">
<g id="IG-logo">
<g id="Group 3">
<mask id="mask0_8173_51951" style="mask-type:luminance" maskUnits="userSpaceOnUse" x="0" y="0" width="20" height="20">
<path id="Clip 2" fill-rule="evenodd" clip-rule="evenodd" d="M0 0H20V20H0V0Z" fill="white"/>
</mask>
<g mask="url(#mask0_8173_51951)">
<path id="Fill 1" fill-rule="evenodd" clip-rule="evenodd" d="M10 0C7.28416 0 6.94362 0.0115129 5.87701 0.0601849C4.81259 0.108738 4.08569 0.277819 3.44962 0.525069C2.79203 0.780617 2.23436 1.12259 1.67839 1.67859C1.12246 2.23462 0.780524 2.79236 0.525007 3.45003C0.277786 4.08618 0.108725 4.81316 0.0601777 5.87771C0.0115116 6.94445 0 7.28503 0 10.0012C0 12.7174 0.0115116 13.0579 0.0601777 14.1247C0.108725 15.1892 0.277786 15.9162 0.525007 16.5524C0.780524 17.21 1.12246 17.7678 1.67839 18.3238C2.23436 18.8798 2.79203 19.2217 3.44962 19.4774C4.08569 19.7246 4.81259 19.8936 5.87701 19.9422C6.94362 19.9909 7.28416 20.0024 10 20.0024C12.7159 20.0024 13.0564 19.9909 14.123 19.9422C15.1874 19.8936 15.9143 19.7246 16.5504 19.4774C17.208 19.2217 17.7656 18.8798 18.3216 18.3238C18.8775 17.7678 19.2194 17.2101 19.475 16.5524C19.7222 15.9162 19.8913 15.1892 19.9399 14.1247C19.9885 13.0579 20 12.7174 20 10.0012C20 7.28503 19.9885 6.94445 19.9399 5.87771C19.8913 4.81316 19.7222 4.08618 19.475 3.45003C19.2194 2.79236 18.8775 2.23462 18.3216 1.67859C17.7656 1.12259 17.208 0.780617 16.5504 0.525069C15.9143 0.277819 15.1874 0.108738 14.123 0.0601849C13.0564 0.0115129 12.7159 0 10 0ZM10 1.80124C12.6701 1.80124 12.9864 1.81144 14.0408 1.85952C15.0159 1.90406 15.5453 2.06695 15.8977 2.20391C16.3645 2.38534 16.6976 2.6021 17.0476 2.95206C17.3975 3.30201 17.6142 3.63517 17.7956 4.102C17.9325 4.45442 18.0954 4.98397 18.1399 5.95908C18.188 7.01366 18.1982 7.32999 18.1982 10.0004C18.1982 12.6708 18.188 12.9872 18.1399 14.0417C18.0954 15.0169 17.9325 15.5464 17.7956 15.8988C17.6142 16.3657 17.3975 16.6988 17.0476 17.0488C16.6976 17.3988 16.3645 17.6155 15.8977 17.7969C15.5453 17.9338 15.0159 18.0968 14.0408 18.1413C12.9866 18.1894 12.6703 18.1996 10 18.1996C7.3297 18.1996 7.01349 18.1894 5.95915 18.1413C4.98416 18.0968 4.45466 17.9338 4.10229 17.7969C3.63552 17.6155 3.3024 17.3988 2.95248 17.0488C2.60257 16.6988 2.38584 16.3657 2.20443 15.8988C2.06748 15.5464 1.90461 15.0169 1.86012 14.0418C1.81201 12.9872 1.8018 12.6708 1.8018 10.0004C1.8018 7.32999 1.81201 7.01366 1.86012 5.95908C1.90461 4.98397 2.06748 4.45442 2.20443 4.102C2.38584 3.63517 2.60257 3.30201 2.95248 2.95206C3.3024 2.6021 3.63552 2.38534 4.10229 2.20391C4.45466 2.06695 4.98416 1.90406 5.95915 1.85952C7.01361 1.81144 7.3299 1.80124 10 1.80124Z" fill="#555555"/>
</g>
</g>
<path id="Fill 4" fill-rule="evenodd" clip-rule="evenodd" d="M10.0002 13.3342C8.15917 13.3342 6.6668 11.8416 6.6668 10.0005C6.6668 8.15927 8.15917 6.66672 10.0002 6.66672C11.841 6.66672 13.3335 8.15927 13.3335 10.0005C13.3335 11.8416 11.841 13.3342 10.0002 13.3342ZM10.0001 4.86548C7.16405 4.86548 4.86499 7.16481 4.86499 10.0012C4.86499 12.8376 7.16405 15.137 10.0001 15.137C12.8362 15.137 15.1353 12.8376 15.1353 10.0012C15.1353 7.16481 12.8362 4.86548 10.0001 4.86548Z" fill="#555555"/>
<path id="Fill 5" fill-rule="evenodd" clip-rule="evenodd" d="M16.5379 4.66253C16.5379 5.32535 16.0007 5.86265 15.3379 5.86265C14.6752 5.86265 14.1379 5.32535 14.1379 4.66253C14.1379 3.9997 14.6752 3.4624 15.3379 3.4624C16.0007 3.4624 16.5379 3.9997 16.5379 4.66253Z" fill="#555555"/>
</g>
</svg>
