<svg xmlns="http://www.w3.org/2000/svg" xmlns:xlink="http://www.w3.org/1999/xlink" viewBox="0 0 211.01 428"><defs><style>.cls-1,.cls-3{fill:#fff;}.cls-1{fill-rule:evenodd;}.cls-2{mask:url(#mask);}</style><mask id="mask" x="20.46" y="0" width="170.1" height="428" maskUnits="userSpaceOnUse"><g id="path-1-inside-1"><path class="cls-1" d="M138.72,211.58V74.06a33.21,33.21,0,0,0-66.42,0V211.58a33.21,33.21,0,0,0,66.42,0Zm-33.21-191c-29.54,0-53.79,24-53.79,53.49V211.58c0,29.54,24.25,53.49,53.79,53.49s53.79-23.95,53.79-53.49V74.06C159.3,44.52,135.05,20.57,105.51,20.57ZM96.66,290.2H93.78V384H41v23.45H170V384H117.23V290.2H96.66Z"/></g></mask></defs><g id="圖層_2" data-name="圖層 2"><g id="圖層_1-2" data-name="圖層 1"><g class="cls-2"><path class="cls-3" d="M93.78,290.2V269.62H73.21V290.2Zm0,93.78v20.57h20.58V384ZM41,384V363.41H20.46V384Zm0,23.45H20.46V428H41Zm129,0V428h20.57V407.43ZM170,384h20.57V363.41H170Zm-52.75,0H96.66v20.57h20.57Zm0-93.78H137.8V269.62H117.23Zm.92-216.14V211.58H159.3V74.06ZM105.51,61.72a12.6,12.6,0,0,1,12.64,12.34H159.3c0-29.51-24.22-53.49-53.79-53.49ZM92.87,74.06a12.59,12.59,0,0,1,12.64-12.34V20.57c-29.57,0-53.79,24-53.79,53.49Zm0,137.52V74.06H51.72V211.58Zm12.64,12.34a12.59,12.59,0,0,1-12.64-12.34H51.72c0,29.51,24.22,53.49,53.79,53.49Zm12.64-12.34a12.6,12.6,0,0,1-12.64,12.34v41.15c29.57,0,53.79-24,53.79-53.49ZM72.3,74.06a33.16,33.16,0,0,1,33.21-32.91V0C64.75,0,31.15,33,31.15,74.06Zm0,137.52V74.06H31.15V211.58Zm33.21,32.91A33.16,33.16,0,0,1,72.3,211.58H31.15c0,41,33.6,74.06,74.36,74.06Zm33.21-32.91a33.16,33.16,0,0,1-33.21,32.91v41.15c40.76,0,74.36-33,74.36-74.06Zm0-137.52V211.58h41.15V74.06ZM105.51,41.15a33.16,33.16,0,0,1,33.21,32.91h41.15C179.87,33,146.27,0,105.51,0ZM93.78,310.77h2.88V269.62H93.78Zm20.58,0V290.2H73.21v20.57Zm0,64.36V310.77H73.21v64.36Zm0,8.85v-8.85H73.21V384ZM93.78,363.41H61.6v41.14H93.78Zm-32.18,0H41v41.14H61.6ZM20.46,384v2.87H61.6V384Zm0,2.87v17.7H61.6v-17.7Zm0,17.7v2.88H61.6v-2.88ZM41,428H61.6V386.85H41Zm20.57,0h87.81V386.85H61.6Zm87.81,0H170V386.85H149.41Zm41.14-20.57v-2.88H149.41v2.88Zm0-2.88v-17.7H149.41v17.7Zm0-17.7V384H149.41v2.87ZM170,363.41H149.41v41.14H170Zm-20.57,0H117.23v41.14h32.18ZM96.66,375.13V384H137.8v-8.85Zm0-64.36v64.36H137.8V310.77Zm0-20.57v20.57H137.8V290.2Zm17.7,20.57h2.87V269.62h-2.87Zm-17.7,0h17.7V269.62H96.66Z"/></g><path class="cls-1" d="M0,218.21v50.94c0,29.25,24.08,53,53.79,53H157.22c29.71,0,53.79-23.72,53.79-53V218.21H190.32v50.94c0,18-14.81,32.59-33.09,32.59H53.79c-18.28,0-33.1-14.59-33.1-32.59V218.21Z"/></g></g></svg>
