<svg width="52" height="16" viewBox="0 0 52 16" fill="none" xmlns="http://www.w3.org/2000/svg">
<g clip-path="url(#clip0_9842_25357)">
<path d="M21.0292 4.37939H17.2628V5.81005V11.6495H18.8395V5.92684C18.8395 5.92684 19.4818 5.92684 20.4745 5.92684C21.4672 5.92684 22.0511 6.62757 22.0511 7.70786V11.6787H23.6278V7.2991C23.6278 5.60567 22.7227 4.43779 21 4.43779L21.0292 4.37939Z" fill="white"/>
<path d="M27.8321 4.37978C26.8102 4.37978 25.9635 4.73015 25.2627 5.46008C24.5912 6.19 24.2408 7.03672 24.2408 8.05862C24.2408 9.08051 24.5912 10.0148 25.2919 10.7155C26.0219 11.4163 26.8978 11.7666 27.9489 11.7666C29 11.7666 30.3722 11.1535 30.9854 10.044L29.8467 9.28489C29.4671 10.0148 28.8248 10.3944 27.9197 10.3944C27.0146 10.3944 26.8978 10.2192 26.489 9.86883C26.0803 9.51847 25.8759 9.08051 25.8467 8.52577H31.2481C31.2481 8.40898 31.2481 8.2338 31.2481 8.02942C31.2481 6.91993 30.9562 6.04402 30.343 5.37248C29.7299 4.70095 28.8832 4.35059 27.8029 4.35059L27.8321 4.37978ZM25.9635 7.35789C26.1095 6.39438 26.8686 5.75205 27.8321 5.75205C28.7956 5.75205 29.6423 6.36518 29.6715 7.35789H25.9343H25.9635Z" fill="white"/>
<path d="M40.4453 4.52539L38.9562 9.54729H38.927L37.3212 4.52539H35.7153L34.1095 9.54729H34.0803L32.5912 4.52539H30.927L33.2044 11.6495H34.8394L36.4744 6.65678H36.5036L38.1679 11.6495H39.8029L42.0803 4.52539H40.4453Z" fill="white"/>
<path d="M44.7664 7.29949C43.8613 7.09511 43.4526 6.86153 43.4526 6.39438C43.4526 5.92723 43.9489 5.69365 44.4453 5.69365C44.9416 5.69365 45.6131 6.01482 45.9343 6.65716L47.1606 5.95643C46.6642 4.90533 45.7883 4.35059 44.5036 4.35059C43.219 4.35059 43.219 4.55497 42.6934 4.96372C42.1679 5.37248 41.9343 5.89803 41.9343 6.54037C41.9343 7.1827 42.1095 7.47467 42.4307 7.82504C42.8102 8.2338 43.4234 8.52577 44.2117 8.67175C45.1752 8.87613 45.6715 9.1973 45.6715 9.60606C45.6715 10.0148 45.146 10.3944 44.562 10.3944C43.9781 10.3944 43.2482 10.0148 42.8686 9.2557L41.6423 9.95642C42.1971 11.1535 43.1606 11.7374 44.5912 11.7374C46.0219 11.7374 46.0511 11.5331 46.5474 11.1243C47.0438 10.7155 47.3066 10.19 47.3066 9.51847C47.3066 8.40898 46.4599 7.64986 44.854 7.27029L44.7664 7.29949Z" fill="white"/>
<path d="M13.292 4.43789C12.2409 4.43789 11.5402 4.81745 10.8102 5.60577C10.3723 4.81745 9.64236 4.43789 8.62046 4.43789C7.59856 4.43789 8.50367 4.43789 8.44528 4.43789H4.97083V11.708H6.54747V7.76636C6.54747 6.68606 7.16061 5.95614 8.09491 5.95614C9.02922 5.95614 9.61316 6.65687 9.61316 7.73716V11.7372H11.1898V7.76636C11.1898 6.68606 11.8029 5.95614 12.7664 5.95614C13.7299 5.95614 14.2847 6.62767 14.2847 7.70796V11.708H15.8613V7.2992C15.8613 5.60577 14.9854 4.40869 13.292 4.40869V4.43789Z" fill="white"/>
<path d="M1.93431 6.51095V1.19708H24.6496V0H1V6.51095H1.93431Z" fill="white"/>
<path d="M1.93431 9.45996H1V15.9709H24.6496V14.8906H1.93431V9.45996Z" fill="white"/>
<path d="M51.0438 6.54025V1.22638H28.3285V0.0292969H51.9781V6.54025H51.0438Z" fill="white"/>
<path d="M51.0438 9.48926H51.9781V16.0002H28.3285V14.9199H51.0438V9.48926Z" fill="white"/>
</g>
<defs>
<clipPath id="clip0_9842_25357">
<rect width="50.9781" height="16" fill="white" transform="translate(1)"/>
</clipPath>
</defs>
</svg>
