<svg width="163" height="30" viewBox="0 0 163 30" fill="none" xmlns="http://www.w3.org/2000/svg">
<g clip-path="url(#clip0_9259_1626)">
<path d="M94.9602 16.7064C95.9026 16.7064 96.6666 15.9424 96.6666 15C96.6666 14.0576 95.9026 13.2937 94.9602 13.2937C94.0179 13.2937 93.2539 14.0576 93.2539 15C93.2539 15.9424 94.0179 16.7064 94.9602 16.7064Z" fill="white"/>
<path d="M103.472 16.5278L102.341 16.8254C102.659 17.8968 102.877 19.0079 102.956 20.119L104.147 19.8214C104.028 18.7103 103.79 17.5992 103.472 16.5278Z" fill="white"/>
<path d="M107.659 19.8016C107.956 18.9881 108.254 17.7579 108.552 16.7064L107.282 16.369C107.123 17.4206 106.885 18.4722 106.587 19.4841L107.659 19.8016Z" fill="white"/>
<path d="M114.266 11.2103H112.48C112.321 10.5357 112.083 9.88095 111.766 9.24603H111.071L110.377 9.44445C110.615 10.0198 110.833 10.6151 111.012 11.2103H108.472V12.5397H118.254V11.2103H115.734C115.992 10.7143 116.29 10.0595 116.548 9.50397L115.655 9.24603H114.98C114.782 9.94048 114.544 10.5952 114.266 11.2103Z" fill="white"/>
<path d="M114.98 9.26587H115.655L115.02 9.0873C115 9.12698 114.98 9.1865 114.98 9.26587Z" fill="white"/>
<path d="M111.667 9.0873L111.052 9.26587H111.746C111.726 9.20634 111.707 9.14682 111.667 9.0873Z" fill="white"/>
<path d="M108.73 20.0595C107.857 20.2381 107.004 20.3968 106.151 20.5754V15.6944H108.611V14.246H106.151V12.5992H108.055V11.2897L108.254 11.4881L109.087 10.1191C108.393 9.42461 107.242 8.59127 106.032 7.89683C106.151 7.65873 106.29 7.42064 106.409 7.1627L105.119 6.60715C104.246 8.3135 103.016 9.80159 101.488 10.9524C101.746 11.5079 101.984 12.0833 102.163 12.6786C102.44 12.4603 102.679 12.2222 102.956 11.9643V12.5794H104.682V14.2262H102.063V15.6746H104.682V20.8333C103.611 21.0317 102.639 21.1905 101.845 21.3294L102.182 22.877C104.048 22.5 106.508 21.9841 108.849 21.4881L108.73 20.0595ZM103.73 11.1706C104.305 10.5357 104.821 9.84127 105.278 9.12699C106.21 9.72223 107.103 10.3968 107.917 11.1706H103.73Z" fill="white"/>
<path d="M111.667 9.08731C111.706 9.14683 111.726 9.20636 111.766 9.26588H114.98C115 9.20636 115.02 9.12699 115.02 9.08731L115.655 9.26588H117.917V7.95636H114.345C114.127 7.48017 113.849 7.02382 113.532 6.58731L112.083 6.94445C112.242 7.24207 112.44 7.59922 112.619 7.93652H108.928V9.24604H111.051L111.667 9.08731Z" fill="white"/>
<path d="M117.083 21.5079C117.024 21.7262 116.944 21.8452 116.845 21.8849C116.726 21.9445 116.587 21.9643 116.448 21.9643H115.893C115.774 21.9643 115.655 21.9444 115.556 21.8651C115.476 21.8056 115.456 21.6468 115.456 21.3889V18.6111H117.46V13.3532H109.405V18.6111H110.952C110.754 20.6151 110.119 21.5278 107.341 22.0833C107.718 22.4603 108.016 22.9167 108.234 23.4127C111.468 22.5992 112.302 21.2103 112.54 18.6111H113.909V21.2698C113.909 22.3016 114.008 22.6389 114.325 22.877C114.643 23.1151 115.119 23.254 115.516 23.254H116.607C116.944 23.254 117.282 23.1944 117.599 23.0952C117.897 22.9762 118.115 22.7579 118.234 22.4603C118.353 22.1627 118.433 21.4286 118.492 20.6944C118.016 20.5357 117.56 20.2976 117.163 19.9802C117.123 20.5159 117.123 21.0119 117.083 21.5079ZM110.833 14.4444H115.992V15.4365H110.833V14.4444ZM110.833 17.5397V16.4881H115.992V17.5397H110.833Z" fill="white"/>
<path d="M126.845 17.7381L125.714 18.3532C126.27 19.246 126.766 20.1786 127.163 21.1706L128.333 20.4564C127.956 19.504 127.441 18.5913 126.845 17.7381Z" fill="white"/>
<path d="M119.782 21.131C120.179 21.369 120.575 21.627 120.933 21.9246C121.686 20.7937 122.302 19.5635 122.758 18.2738L121.429 17.877C121.071 19.0476 120.516 20.1389 119.782 21.131Z" fill="white"/>
<path d="M130.754 11.2897V8.88888L136.032 7.87698L134.702 6.64682L129.167 7.67857V13.2936C129.167 16.5476 129.048 20.1587 127.619 22.2619C128.095 22.5198 128.532 22.8571 128.909 23.254C130.516 20.9524 130.754 16.7659 130.754 14.1667V12.8571" fill="white"/>
<path d="M128.135 7.93651H120.179V9.3254H128.135V7.93651Z" fill="white"/>
<path d="M150.813 19.6825H149.325V15.1389H150.536V13.9286H141.686V15.1389H142.917V19.6627H141.27V20.873H147.817V22.8373H149.345V20.873H150.833L150.813 19.6825ZM147.817 19.6825H144.405V18.8294H147.817V19.6825ZM147.817 17.7976H144.405V16.9643H147.817V17.7976ZM147.817 15.9722H144.405V15.1389H147.817V15.9722Z" fill="white"/>
<path d="M146.806 6.68651V12.4802H151.984V21.5476C151.984 21.7857 151.905 21.8651 151.687 21.8849C151.468 21.9048 150.714 21.9048 150 21.8651C150.238 22.3413 150.397 22.8373 150.496 23.3532C151.627 23.3532 152.421 23.3135 152.976 23.0556C153.472 22.7976 153.651 22.381 153.651 21.5476V6.68651H146.806ZM152.004 11.2897H148.413V10.1389H151.984L152.004 11.2897ZM152.004 9.00794H148.413V7.85714H151.984L152.004 9.00794Z" fill="white"/>
<path d="M145.417 6.68651H138.71V23.3532H140.357V12.4603H145.417V6.68651ZM143.849 11.2897H140.357V10.1389H143.849V11.2897ZM143.849 9.00794H140.357V7.85714H143.849V9.00794Z" fill="white"/>
<path d="M122.44 9.22618L121.131 9.68253L122.063 11.6667L123.413 11.1905L122.44 9.22618Z" fill="white"/>
<path d="M128.413 11.4881V12.8968H125.099V14.6032H128.174V16.0516H125.099V23.2341H123.472V16.0516H120V14.6032H123.472V12.8968H119.901V11.4881H128.413Z" fill="white"/>
<path d="M125.873 9.14682L124.563 11.746L125.992 11.7857L127.282 9.62301L125.873 9.14682Z" fill="white"/>
<path d="M123.552 7.93652C123.373 7.59922 123.175 7.24207 123.016 6.94445L124.464 6.58731C124.782 7.00398 125.06 7.46033 125.278 7.95636L123.552 7.93652Z" fill="white"/>
<path d="M136.349 11.2698H130V12.8175H136.349V11.2698Z" fill="white"/>
<path d="M134.504 12.381H132.817V23.2738H134.504V12.381Z" fill="white"/>
<path d="M0 0V11.6071H2.22222V2.22222H160.179V11.6071H162.401V0H0Z" fill="white"/>
<path d="M160.179 27.7778H2.22222V18.3929H0V30H162.401V18.3929H160.179V27.7778Z" fill="white"/>
<path d="M39.0477 8.17461H31.9644V21.8452H34.9405V11.0516C34.9405 11.0516 36.1509 11.0119 38.0159 11.0119C40.0001 11.0119 40.9723 12.3413 40.9723 14.3452V21.8452H43.9485V13.5913C43.9683 10.3968 42.2818 8.19445 39.0477 8.17461Z" fill="white"/>
<path d="M51.7857 8.03572C49.8611 8.03572 48.254 8.71032 46.9643 10.0595C45.6945 11.3691 45 13.1349 45.0397 14.9802C45.0397 16.9643 45.7143 18.631 47.0437 19.9603C48.373 21.2897 50.0794 21.9444 52.0635 21.9444C54.4643 21.9444 56.6468 20.7937 57.7778 18.7103L55.6151 17.2818C54.881 18.6508 53.6905 19.3651 52.004 19.3651C51.0119 19.3849 50.0595 19.0278 49.3056 18.3929C48.5516 17.7778 48.1151 16.8651 48.0953 15.8929H58.254C58.2937 15.5754 58.3135 15.2778 58.2937 14.9603C58.2937 12.877 57.7183 11.2302 56.5675 9.94048C55.4167 8.6508 53.8294 8.03572 51.7857 8.03572ZM48.254 13.631C48.4722 11.8651 50 10.5556 51.7857 10.5952C53.6905 10.5952 55.1786 11.746 55.2778 13.631H48.254Z" fill="white"/>
<path d="M75.5754 8.17461L72.7777 17.7976H72.7182L69.6627 8.17461H66.6666L63.6309 17.7778H63.5912L60.7936 8.17461H57.6587L61.9444 21.8254H65L68.115 12.3016H68.1547L71.25 21.8254H74.365L78.6507 8.17461H75.5754Z" fill="white"/>
<path d="M83.9682 13.5516C82.242 13.1746 81.488 12.7183 81.488 11.8452C81.488 11.1111 82.4404 10.5357 83.3729 10.5357C84.6428 10.5357 85.5753 11.131 86.1705 12.3413L88.4721 11.0318C87.5396 9.02778 85.8729 8.01588 83.4523 8.01588C82.2221 7.99604 81.0118 8.39286 80.0396 9.16667C79.107 9.86112 78.5713 10.9524 78.5912 12.123C78.5713 13.0357 78.9086 13.9087 79.5435 14.5635C80.2777 15.3373 81.4086 15.873 82.8769 16.1706C84.7023 16.5476 85.6348 17.1429 85.6348 17.9167C85.6348 18.8294 84.6626 19.3849 83.5316 19.3849C82.1031 19.3849 81.0515 18.6508 80.3173 17.2222L77.9761 18.5318C79.0078 20.754 80.8531 21.8849 83.5118 21.8849C85.0197 21.8849 86.2499 21.5079 87.1824 20.7341C88.0951 20 88.611 18.8889 88.5912 17.7183C88.611 15.6945 87.0039 14.246 83.9682 13.5516Z" fill="white"/>
<path d="M24.4444 8.15475C22.4603 8.15475 21.1706 8.8492 19.7817 10.3571C18.9483 8.86904 17.5793 8.15475 15.6547 8.15475H8.76978V21.8452H11.746V14.4048C11.746 12.3809 12.8769 10.9921 14.6825 10.9921C16.6666 10.9921 17.5595 12.3214 17.5595 14.3254V21.8452H20.5158V14.3651C20.5158 12.3413 21.6468 10.9722 23.4722 10.9722C25.4563 10.9722 26.3293 12.2421 26.3293 14.2857V21.8254H29.3055V13.5714C29.3055 10.3571 27.6785 8.15475 24.4444 8.15475Z" fill="white"/>
</g>
<defs>
<clipPath id="clip0_9259_1626">
<rect width="162.401" height="30" fill="white"/>
</clipPath>
</defs>
</svg>
