<svg xmlns="http://www.w3.org/2000/svg" viewBox="0 0 312.47 395"><defs><style>.cls-1,.cls-2{fill:#fff;}.cls-1{fill-rule:evenodd;}</style></defs><g id="圖層_2" data-name="圖層 2"><g id="圖層_1-2" data-name="圖層 1"><path class="cls-1" d="M35.5,387a12.33,12.33,0,0,0,11.82,2.15l256.74-88.4A12.34,12.34,0,0,0,308.54,280a223.8,223.8,0,0,1-54.21-85.76l-14.18-41.2A123.42,123.42,0,0,0,6.76,233.42L21,274.84a223.78,223.78,0,0,1,10.09,101A12.37,12.37,0,0,0,35.5,387ZM231,202.28a248.48,248.48,0,0,0,46.93,81.35L57.38,359.57a248.57,248.57,0,0,0-13.1-93L30.1,225.38a98.73,98.73,0,1,1,186.71-64.29Z"/><path class="cls-1" d="M191.76,391.62a61.71,61.71,0,0,1-78.44-38.26,12.34,12.34,0,0,1,23.34-8,37,37,0,0,0,18.79,21.2,38,38,0,0,0,49.48-17,12.4,12.4,0,0,1,22.28,10.87A61.7,61.7,0,0,1,191.76,391.62Z"/><path class="cls-1" d="M91.31,99.88a12.34,12.34,0,0,1-15.69-7.65l-12.05-35a12.34,12.34,0,1,1,23.34-8l12,35A12.35,12.35,0,0,1,91.31,99.88Z"/><path class="cls-2" d="M204,48a24.7,24.7,0,1,1,14.15-12.52A24.68,24.68,0,0,1,204,48Z"/></g></g></svg>