<svg width="43" height="42" viewBox="0 0 43 42" fill="none" xmlns="http://www.w3.org/2000/svg">
<path d="M43 21C43 9.40177 33.3744 0 21.5 0C9.62563 0 0 9.40177 0 21C0 31.4813 7.86104 40.1706 18.1396 41.7449V27.0698H12.6802V21H18.1396V16.3738C18.1396 11.1098 21.3503 8.20399 26.2619 8.20399C28.6157 8.20399 31.0747 8.61466 31.0747 8.61466V13.7822H28.3641C25.6949 13.7822 24.8604 15.4 24.8604 17.0613V21H30.823L29.8707 27.0698H24.8604V41.7449C35.139 40.1706 43 31.4813 43 21Z" fill="white"/>
<path d="M29.8677 27.0699L30.8201 21.0001H24.8574V17.0614C24.8574 15.4001 25.6887 13.7823 28.3611 13.7823H31.0717V8.61477C31.0717 8.61477 28.6127 8.2041 26.2589 8.2041C21.3473 8.2041 18.1367 11.1099 18.1367 16.3739V21.0001H12.6772V27.0699H18.1367V41.745C19.2324 41.913 20.3535 42.0001 21.497 42.0001C22.6405 42.0001 23.7617 41.913 24.8574 41.745V27.0699H29.8677Z" fill="black"/>
</svg>
