<svg width="42" height="42" viewBox="0 0 42 42" fill="none" xmlns="http://www.w3.org/2000/svg">
<path d="M21 42C32.598 42 42 32.598 42 21C42 9.40202 32.598 0 21 0C9.40203 0 0 9.40202 0 21C0 32.598 9.40203 42 21 42Z" fill="white"/>
<path d="M21.0002 10.1609C24.5313 10.1609 24.9482 10.1734 26.342 10.2387C27.63 10.2978 28.33 10.5125 28.7967 10.6929C29.4127 10.9325 29.8545 11.2187 30.318 11.6823C30.7816 12.1458 31.0678 12.5845 31.3073 13.2036C31.4878 13.6703 31.7024 14.3703 31.7616 15.6583C31.8238 17.0521 31.8393 17.4721 31.8393 21.0001C31.8393 24.5281 31.8269 24.9481 31.7616 26.3418C31.7024 27.6298 31.4878 28.3298 31.3073 28.7965C31.0678 29.4125 30.7816 29.8543 30.318 30.3178C29.8545 30.7814 29.4158 31.0676 28.7967 31.3072C28.33 31.4876 27.63 31.7023 26.342 31.7614C24.9482 31.8236 24.5313 31.8392 21.0002 31.8392C17.4691 31.8392 17.0522 31.8267 15.6585 31.7614C14.3705 31.7023 13.6705 31.4876 13.2038 31.3072C12.5878 31.0676 12.146 30.7814 11.6825 30.3178C11.2189 29.8543 10.9327 29.4156 10.6931 28.7965C10.5127 28.3298 10.298 27.6298 10.2389 26.3418C10.1767 24.9481 10.1611 24.5281 10.1611 21.0001C10.1611 17.4721 10.1736 17.0521 10.2389 15.6583C10.298 14.3703 10.5127 13.6703 10.6931 13.2036C10.9327 12.5876 11.2189 12.1458 11.6825 11.6823C12.146 11.2187 12.5847 10.9325 13.2038 10.6929C13.6705 10.5125 14.3705 10.2978 15.6585 10.2387C17.0522 10.1765 17.4722 10.1609 21.0002 10.1609ZM21.0002 7.77783C17.41 7.77783 16.9589 7.79339 15.5496 7.85872C14.1433 7.92405 13.182 8.14494 12.3389 8.47472C11.4709 8.81383 10.7336 9.26494 9.99623 9.99917C9.26201 10.7334 8.80779 11.4707 8.47179 12.3418C8.14512 13.1818 7.92112 14.1432 7.85578 15.5525C7.79045 16.9618 7.7749 17.4129 7.7749 21.0032C7.7749 24.5934 7.79045 25.0445 7.85578 26.4538C7.92112 27.8601 8.14201 28.8214 8.47179 29.6645C8.8109 30.5325 9.26201 31.2698 9.99623 32.0072C10.7305 32.7414 11.4678 33.1956 12.3389 33.5316C13.1789 33.8583 14.1402 34.0823 15.5496 34.1476C16.9589 34.2129 17.41 34.2285 21.0002 34.2285C24.5905 34.2285 25.0416 34.2129 26.4509 34.1476C27.8571 34.0823 28.8184 33.8614 29.6616 33.5316C30.5296 33.1925 31.2669 32.7414 32.0042 32.0072C32.7385 31.2729 33.1927 30.5356 33.5287 29.6645C33.8553 28.8245 34.0793 27.8632 34.1447 26.4538C34.21 25.0445 34.2256 24.5934 34.2256 21.0032C34.2256 17.4129 34.21 16.9618 34.1447 15.5525C34.0793 14.1463 33.8584 13.1849 33.5287 12.3418C33.1896 11.4738 32.7385 10.7365 32.0042 9.99917C31.27 9.26494 30.5327 8.81072 29.6616 8.47472C28.8216 8.14805 27.8602 7.92405 26.4509 7.85872C25.0416 7.79339 24.5905 7.77783 21.0002 7.77783Z" fill="black"/>
<path d="M28.0593 15.5273C28.9356 15.5273 29.646 14.817 29.646 13.9407C29.646 13.0644 28.9356 12.354 28.0593 12.354C27.183 12.354 26.4727 13.0644 26.4727 13.9407C26.4727 14.817 27.183 15.5273 28.0593 15.5273Z" fill="white"/>
<path d="M21.0012 8C17.4706 8 17.0275 8.01544 15.6408 8.07854C14.2569 8.14192 13.3122 8.36102 12.4856 8.6825C11.6306 9.01454 10.9053 9.45871 10.1827 10.1816C9.45954 10.9041 9.01536 11.6294 8.68224 12.4842C8.35994 13.311 8.14056 14.256 8.07827 15.6394C8.01625 17.0261 8 17.4694 8 21C8 24.5306 8.01571 24.9723 8.07854 26.359C8.14219 27.7429 8.3613 28.6876 8.68251 29.5142C9.01482 30.3692 9.45899 31.0945 10.1819 31.8171C10.9042 32.5402 11.6295 32.9855 12.484 33.3175C13.3111 33.639 14.256 33.8581 15.6397 33.9215C17.0264 33.9846 17.4692 34 20.9996 34C24.5305 34 24.9722 33.9846 26.3589 33.9215C27.7429 33.8581 28.6886 33.639 29.5158 33.3175C30.3705 32.9855 31.0947 32.5402 31.8171 31.8171C32.5402 31.0945 32.9844 30.3692 33.3175 29.5145C33.6371 28.6876 33.8565 27.7427 33.9215 26.3593C33.9837 24.9726 34 24.5306 34 21C34 17.4694 33.9837 17.0263 33.9215 15.6397C33.8565 14.2557 33.6371 13.311 33.3175 12.4845C32.9844 11.6294 32.5402 10.9041 31.8171 10.1816C31.0939 9.45844 30.3708 9.01427 29.515 8.6825C28.6862 8.36102 27.741 8.14192 26.357 8.07854C24.9703 8.01544 24.5289 8 20.9972 8H21.0012ZM19.835 10.3427C20.1811 10.3422 20.5673 10.3427 21.0012 10.3427C24.4723 10.3427 24.8837 10.3552 26.2544 10.4175C27.5219 10.4754 28.2098 10.6872 28.668 10.8651C29.2747 11.1008 29.7072 11.3824 30.162 11.8374C30.617 12.2924 30.8987 12.7258 31.1348 13.3324C31.3128 13.7901 31.5248 14.4781 31.5825 15.7456C31.6448 17.116 31.6583 17.5276 31.6583 20.997C31.6583 24.4664 31.6448 24.8781 31.5825 26.2485C31.5246 27.516 31.3128 28.2039 31.1348 28.6616C30.8992 29.2683 30.617 29.7003 30.162 30.155C29.707 30.61 29.275 30.8916 28.668 31.1273C28.2103 31.306 27.5219 31.5173 26.2544 31.5752C24.8839 31.6375 24.4723 31.6511 21.0012 31.6511C17.5299 31.6511 17.1185 31.6375 15.7481 31.5752C14.4806 31.5167 13.7926 31.3049 13.3341 31.127C12.7274 30.8914 12.2941 30.6097 11.8391 30.1547C11.3841 29.6997 11.1024 29.2675 10.8663 28.6605C10.6883 28.2028 10.4763 27.5149 10.4186 26.2474C10.3563 24.877 10.3438 24.4653 10.3438 20.9938C10.3438 17.5222 10.3563 17.1127 10.4186 15.7423C10.4765 14.4748 10.6883 13.7869 10.8663 13.3286C11.1019 12.722 11.3841 12.2886 11.8391 11.8336C12.2941 11.3786 12.7274 11.097 13.3341 10.8608C13.7924 10.6821 14.4806 10.4708 15.7481 10.4126C16.9473 10.3584 17.4121 10.3422 19.835 10.3395V10.3427ZM27.9406 12.5012C27.0793 12.5012 26.3806 13.1992 26.3806 14.0607C26.3806 14.922 27.0793 15.6207 27.9406 15.6207C28.8018 15.6207 29.5006 14.922 29.5006 14.0607C29.5006 13.1995 28.8018 12.5012 27.9406 12.5012ZM21.0012 14.324C17.3143 14.324 14.3251 17.3131 14.3251 21C14.3251 24.6869 17.3143 27.6747 21.0012 27.6747C24.6881 27.6747 27.6762 24.6869 27.6762 21C27.6762 17.3131 24.6881 14.324 21.0012 14.324ZM21.0012 16.6667C23.3943 16.6667 25.3346 18.6066 25.3346 21C25.3346 23.3931 23.3943 25.3333 21.0012 25.3333C18.6078 25.3333 16.6678 23.3931 16.6678 21C16.6678 18.6066 18.6078 16.6667 21.0012 16.6667Z" fill="black"/>
</svg>
