<svg width="42" height="42" viewBox="0 0 42 42" fill="none" xmlns="http://www.w3.org/2000/svg">
<path d="M21 42C32.598 42 42 32.598 42 21C42 9.40202 32.598 0 21 0C9.40202 0 0 9.40202 0 21C0 32.598 9.40202 42 21 42Z" fill="white"/>
<path d="M35.0044 19.7767C35.0044 13.5029 28.7149 8.3999 20.9856 8.3999C13.2563 8.3999 6.9668 13.5042 6.9668 19.7767C6.9668 25.4007 11.9543 30.11 18.6914 31.0012C19.1481 31.0996 19.7689 31.3017 19.9264 31.6928C20.0682 32.0472 20.0183 32.6024 19.9724 32.9607C19.9724 32.9607 19.8083 33.9503 19.7729 34.1603C19.7112 34.5147 19.4907 35.5463 20.9869 34.9163C22.4832 34.2863 29.0601 30.1625 32.0014 26.7775C34.0332 24.5489 35.007 22.2888 35.007 19.778L35.0044 19.7767Z" fill="black"/>
<path d="M30.3408 23.3995C30.4892 23.3995 30.6086 23.2801 30.6086 23.1317V22.1369C30.6086 21.9899 30.4878 21.8691 30.3408 21.8691H27.6647V20.8362H30.3408C30.4892 20.8362 30.6086 20.7167 30.6086 20.5684V19.5749C30.6086 19.4279 30.4878 19.3071 30.3408 19.3071H27.6647V18.2742H30.3408C30.4892 18.2742 30.6086 18.1547 30.6086 18.0064V17.0129C30.6086 16.8659 30.4878 16.7451 30.3408 16.7451H26.402C26.2537 16.7451 26.1343 16.8646 26.1343 17.0129V17.0181V23.1265V23.1317C26.1343 23.2801 26.2537 23.3995 26.402 23.3995H30.3408Z" fill="white"/>
<path d="M15.7725 23.3995C15.9208 23.3995 16.0402 23.2801 16.0402 23.1317V22.1369C16.0402 21.9899 15.9195 21.8691 15.7725 21.8691H13.0963V17.0129C13.0963 16.8659 12.9755 16.7451 12.8285 16.7451H11.8337C11.6854 16.7451 11.5659 16.8646 11.5659 17.0129V23.1265V23.1317C11.5659 23.2801 11.6854 23.3995 11.8337 23.3995H15.7725Z" fill="white"/>
<path d="M18.1427 16.7451H17.1491C17.0012 16.7451 16.8813 16.865 16.8813 17.0129V23.1304C16.8813 23.2783 17.0012 23.3982 17.1491 23.3982H18.1427C18.2905 23.3982 18.4104 23.2783 18.4104 23.1304V17.0129C18.4104 16.865 18.2905 16.7451 18.1427 16.7451Z" fill="white"/>
<path d="M24.9112 16.7451H23.9163C23.768 16.7451 23.6486 16.8646 23.6486 17.0129V20.6472L20.849 16.8672C20.8424 16.858 20.8346 16.8488 20.828 16.8396C20.828 16.8396 20.828 16.8396 20.8267 16.8383C20.8214 16.8331 20.8162 16.8265 20.8109 16.8212C20.8096 16.8199 20.807 16.8186 20.8057 16.8173C20.8004 16.8134 20.7965 16.8094 20.7913 16.8055C20.7886 16.8042 20.786 16.8016 20.7834 16.8002C20.7794 16.7963 20.7742 16.7937 20.7689 16.7911C20.7663 16.7897 20.7637 16.7871 20.7611 16.7858C20.7558 16.7832 20.7519 16.7806 20.7466 16.7779C20.744 16.7766 20.7414 16.7753 20.7387 16.774C20.7335 16.7714 20.7283 16.7687 20.723 16.7674C20.7204 16.7674 20.7178 16.7648 20.7138 16.7648C20.7086 16.7635 20.7033 16.7609 20.6981 16.7596C20.6954 16.7596 20.6915 16.7582 20.6889 16.7569C20.6836 16.7569 20.6784 16.7543 20.6731 16.753C20.6692 16.753 20.6653 16.753 20.6613 16.7517C20.6561 16.7517 20.6521 16.7504 20.6469 16.7504C20.6416 16.7504 20.6377 16.7504 20.6324 16.7504C20.6298 16.7504 20.6259 16.7504 20.6233 16.7504H19.6349C19.4866 16.7504 19.3672 16.8698 19.3672 17.0181V23.137C19.3672 23.2853 19.4866 23.4047 19.6349 23.4047H20.6298C20.7781 23.4047 20.8976 23.2853 20.8976 23.137V19.504L23.6998 23.2892C23.7194 23.3168 23.7431 23.3391 23.7693 23.3562C23.7693 23.3562 23.7719 23.3575 23.7719 23.3588C23.7772 23.3627 23.7824 23.3654 23.789 23.3693C23.7916 23.3706 23.7943 23.3719 23.7969 23.3732C23.8008 23.3759 23.8061 23.3772 23.81 23.3798C23.8139 23.3824 23.8192 23.3837 23.8231 23.3851C23.8257 23.3851 23.8284 23.3877 23.831 23.3877C23.8376 23.3903 23.8428 23.3916 23.8494 23.3929C23.8494 23.3929 23.852 23.3929 23.8533 23.3929C23.8756 23.3982 23.8993 23.4021 23.9229 23.4021H24.9112C25.0595 23.4021 25.1789 23.2827 25.1789 23.1344V17.0155C25.1789 16.8672 25.0595 16.7477 24.9112 16.7477V16.7451Z" fill="white"/>
</svg>
