<svg width="43" height="42" viewBox="0 0 43 42" fill="none" xmlns="http://www.w3.org/2000/svg">
<path d="M21.5 42C33.3741 42 43 32.598 43 21C43 9.40202 33.3741 0 21.5 0C9.62587 0 0 9.40202 0 21C0 32.598 9.62587 42 21.5 42Z" fill="white"/>
<path d="M17.1552 33.0957C27.6568 33.0957 33.3997 24.5993 33.3997 17.2291C33.3997 16.9864 33.3933 16.7468 33.3837 16.5073C34.4985 15.7202 35.4668 14.7371 36.2313 13.6202C35.2088 14.0651 34.1068 14.3637 32.9537 14.4975C34.1322 13.8068 35.0368 12.7148 35.4636 11.4144C34.3616 12.0522 33.1385 12.5188 31.8389 12.7677C30.7973 11.6851 29.313 11.0068 27.6727 11.0068C24.5193 11.0068 21.9616 13.5051 21.9616 16.5819C21.9616 17.0206 22.0126 17.4437 22.1114 17.8544C17.3654 17.6211 13.1578 15.4028 10.3453 12.0273C9.85477 12.8517 9.57129 13.8099 9.57129 14.8304C9.57129 16.7655 10.5778 18.4735 12.1131 19.4722C11.1766 19.4442 10.2975 19.1922 9.52669 18.7753C9.52669 18.7971 9.52669 18.8219 9.52669 18.8468C9.52669 21.5473 11.4951 23.8028 14.107 24.3131C13.626 24.4406 13.1228 24.5091 12.6036 24.5091C12.2373 24.5091 11.8774 24.4748 11.5302 24.4095C12.2564 26.6246 14.365 28.2362 16.8622 28.2828C14.9065 29.7793 12.4475 30.6691 9.77196 30.6691C9.31011 30.6691 8.8578 30.6442 8.40869 30.5913C10.9345 32.1717 13.935 33.0957 17.1584 33.0957" fill="black"/>
</svg>
