<svg width="42" height="42" viewBox="0 0 42 42" fill="none" xmlns="http://www.w3.org/2000/svg">
<path d="M21 42C32.598 42 42 32.598 42 21C42 9.40202 32.598 0 21 0C9.40203 0 0 9.40202 0 21C0 32.598 9.40203 42 21 42Z" fill="white"/>
<path d="M34.4151 14.2615C34.0947 13.0575 33.1458 12.1086 31.9387 11.7851C29.7547 11.2002 21 11.2002 21 11.2002C21 11.2002 12.2453 11.2002 10.0613 11.7851C8.85734 12.1086 7.90845 13.0544 7.58489 14.2615C7 16.4455 7 21.0002 7 21.0002C7 21.0002 7 25.5549 7.58489 27.7389C7.90533 28.9429 8.85423 29.8918 10.0613 30.2153C12.2453 30.8002 21 30.8002 21 30.8002C21 30.8002 29.7547 30.8002 31.9387 30.2153C33.1427 29.8918 34.0916 28.946 34.4151 27.7389C35 25.5549 35 21.0002 35 21.0002C35 21.0002 35 16.4455 34.4151 14.2615ZM18.2 25.2002V16.8002L25.4738 21.0002L18.2 25.2002Z" fill="black"/>
</svg>
